<?xml version="1.0" standalone="no"?>
<!DOCTYPE svg PUBLIC "-//W3C//DTD SVG 20010904//EN"
 "http://www.w3.org/TR/2001/REC-SVG-20010904/DTD/svg10.dtd">
<svg version="1.0" xmlns="http://www.w3.org/2000/svg"
 width="235.000000pt" height="235.000000pt" viewBox="0 0 235.000000 235.000000"
 preserveAspectRatio="xMidYMid meet">
<metadata>
Created by potrace 1.14, written by Peter Selinger 2001-2017
</metadata>
<g transform="translate(0.000000,235.000000) scale(0.100000,-0.100000)"
fill="#000000" stroke="none">
<path d="M965 2329 c-105 -21 -195 -47 -212 -61 -7 -6 -13 -8 -13 -4 0 11
-231 -112 -250 -133 -3 -4 -23 -19 -45 -35 -59 -43 -179 -170 -222 -235 -21
-31 -41 -58 -45 -61 -4 -3 -30 -53 -57 -110 -49 -105 -84 -205 -95 -271 -3
-19 -10 -56 -15 -84 -12 -63 -7 -317 7 -370 6 -22 13 -51 15 -65 10 -55 61
-189 103 -270 110 -212 293 -393 507 -501 78 -40 225 -93 282 -103 127 -22
175 -25 280 -22 158 6 189 11 320 51 237 72 468 240 610 445 43 61 104 167
110 190 1 3 7 19 14 35 23 54 43 110 47 135 3 14 10 43 16 65 17 64 19 83 23
220 4 154 -24 344 -65 430 -5 11 -19 45 -31 75 -47 115 -143 253 -249 360 -54
54 -172 150 -185 150 -4 0 -21 10 -38 22 -18 13 -34 23 -37 24 -3 0 -33 14
-68 31 -144 72 -288 105 -477 108 -104 2 -163 -2 -230 -16z"/>
</g>
</svg>
