<?xml version="1.0" encoding="UTF-8" standalone="no"?>
<!DOCTYPE svg PUBLIC "-//W3C//DTD SVG 1.1//EN" "http://www.w3.org/Graphics/SVG/1.1/DTD/svg11.dtd">
<svg width="100%" height="100%" viewBox="0 0 16 16" version="1.1" xmlns="http://www.w3.org/2000/svg" xmlns:xlink="http://www.w3.org/1999/xlink" xml:space="preserve" xmlns:serif="http://www.serif.com/" style="fill-rule:evenodd;clip-rule:evenodd;stroke-linejoin:round;stroke-miterlimit:2;">
    <g transform="matrix(1.23408,0,0,1.1938,-1.20391,-3.50359)">
        <g>
            <g transform="matrix(0.932962,0,0,0.990119,0.0984316,1.31165)">
                <path d="M14.608,4.513C14.608,3.75 13.972,3.13 13.188,3.13L2.522,3.13C1.739,3.13 1.103,3.75 1.103,4.513L1.103,12.057C1.103,12.82 1.739,13.44 2.522,13.44L13.188,13.44C13.972,13.44 14.608,12.82 14.608,12.057L14.608,4.513Z"/>
            </g>
            <g transform="matrix(0.969784,0,0,1.07204,0.173546,2.78388)">
                <path d="M10.268,8.942C10.268,8.652 10.049,8.416 9.778,8.416L6.31,8.416C6.039,8.416 5.819,8.652 5.819,8.942C5.819,9.233 6.039,9.468 6.31,9.468L9.778,9.468C10.049,9.468 10.268,9.233 10.268,8.942Z" style="fill:rgb(252,180,20);"/>
            </g>
            <g transform="matrix(1.00646,0,0,0.970781,0.161138,1.93734)">
                <g transform="matrix(0.552547,-0.694366,0.724089,0.661827,-6.01642,5.76959)">
                    <path d="M7.891,10.282C7.891,9.985 7.622,9.744 7.29,9.744L4.395,9.744C4.064,9.744 3.794,9.985 3.794,10.282C3.794,10.579 4.064,10.82 4.395,10.82L7.29,10.82C7.622,10.82 7.891,10.579 7.891,10.282Z" style="fill:white;"/>
                </g>
                <g transform="matrix(0.549313,0.699374,-0.72805,0.656817,8.92655,-4.35606)">
                    <path d="M7.891,10.282C7.891,9.985 7.622,9.744 7.291,9.744L4.394,9.744C4.063,9.744 3.794,9.985 3.794,10.282C3.794,10.579 4.063,10.82 4.394,10.82L7.291,10.82C7.622,10.82 7.891,10.579 7.891,10.282Z" style="fill:white;"/>
                </g>
            </g>
        </g>
    </g>
</svg>
